<?xml version="1.0" encoding="utf-8"?>
<!-- Generator: Adobe Illustrator 24.0.2, SVG Export Plug-In . SVG Version: 6.00 Build 0)  -->
<svg version="1.1" id="Logo" xmlns="http://www.w3.org/2000/svg" xmlns:xlink="http://www.w3.org/1999/xlink" x="0px" y="0px"
	 viewBox="0 0 156.9 49" style="enable-background:new 0 0 156.9 49;" xml:space="preserve">
<style type="text/css">
	.st0{fill-rule:evenodd;clip-rule:evenodd;}
	.st1{fill-rule:evenodd;clip-rule:evenodd;fill:url(#Icon-2_1_);}
	.st2{fill-rule:evenodd;clip-rule:evenodd;fill:#FFFFFF;}
	.st3{fill:url(#Dot-2_1_);}
</style>
<path id="StepUp" class="st0" d="M68.3,15.7c-1-0.7-2.1-1.2-3.3-1.7c-1.3-0.5-2.7-0.7-4.1-0.7c-1,0-2,0.1-3,0.4
	C57,14,56.2,14.4,55.4,15c-0.7,0.6-1.3,1.3-1.7,2.1C53.3,18,53.1,19,53.1,20c0,0.7,0.1,1.4,0.4,2.1c0.3,0.6,0.6,1.1,1.1,1.6
	c0.6,0.5,1.2,0.9,1.9,1.2c0.9,0.4,1.7,0.7,2.6,0.9c0.8,0.2,1.6,0.5,2.3,0.7c0.6,0.2,1.2,0.4,1.7,0.7c0.4,0.2,0.8,0.5,1.1,0.8
	s0.4,0.7,0.4,1.2c0,1.5-1.1,2.2-3.4,2.2c-0.8,0-1.6-0.1-2.4-0.3c-0.7-0.2-1.4-0.4-2.1-0.7c-0.6-0.3-1.1-0.5-1.7-0.9
	c-0.3-0.2-0.7-0.4-1-0.7l-1.8,3.6c1.3,0.9,2.7,1.6,4.2,2c1.5,0.5,3.1,0.7,4.7,0.7c1,0,2-0.1,3-0.3c0.9-0.2,1.7-0.6,2.5-1.1
	c0.7-0.5,1.3-1.2,1.7-2c0.4-0.9,0.7-1.9,0.6-2.9c0-0.9-0.1-1.7-0.5-2.5c-0.3-0.7-0.8-1.3-1.4-1.7c-0.6-0.5-1.4-0.9-2.1-1.2
	c-0.8-0.3-1.8-0.6-2.8-0.9c-0.8-0.2-1.5-0.4-2.1-0.6c-0.5-0.1-1-0.3-1.5-0.6c-0.4-0.2-0.7-0.4-0.9-0.8c-0.2-0.3-0.3-0.7-0.3-1.1
	c0-0.7,0.3-1.4,0.8-1.8c0.8-0.5,1.6-0.7,2.5-0.6c0.6,0,1.3,0.1,1.9,0.2c0.6,0.2,1.2,0.3,1.7,0.6c0.5,0.2,0.9,0.4,1.3,0.7
	c0.3,0.2,0.5,0.4,0.8,0.6L68.3,15.7z M80.1,30.9c-0.2,0.1-0.6,0.2-1,0.4c-0.4,0.1-0.8,0.2-1.2,0.2c-0.4,0-0.8-0.1-1.1-0.3
	c-0.3-0.3-0.5-0.7-0.4-1.2v-7.7h3.3v-3.1h-3.3V14h-4v5.1h-2.1v3.1h2.1v9.1c0,0.6,0.1,1.2,0.3,1.8c0.2,0.5,0.5,0.9,0.9,1.2
	s0.8,0.5,1.3,0.7c0.5,0.1,1,0.2,1.6,0.2c0.8,0,1.6-0.1,2.4-0.4c0.7-0.2,1.3-0.4,2-0.7L80.1,30.9z M94.3,34c1.2-0.7,2.1-1.7,2.8-3
	l-3.4-1c-0.3,0.7-0.8,1.2-1.4,1.6c-0.7,0.4-1.5,0.6-2.2,0.6c-0.5,0-1-0.1-1.5-0.3s-0.9-0.4-1.3-0.8c-0.4-0.3-0.7-0.8-0.9-1.2
	c-0.2-0.5-0.4-1.1-0.4-1.7h12.1c0-0.2,0.1-0.4,0.1-0.6s0-0.5,0-0.8c0-1-0.2-2.1-0.5-3.1c-0.4-1-0.9-1.8-1.6-2.6
	c-0.7-0.8-1.6-1.4-2.6-1.8c-1.1-0.5-2.2-0.7-3.4-0.7c-1.2,0-2.3,0.2-3.4,0.7c-2,0.8-3.5,2.4-4.2,4.4c-0.4,1-0.6,2.1-0.6,3.2
	s0.2,2.1,0.6,3.1c0.8,2,2.3,3.5,4.2,4.3c1.1,0.4,2.2,0.7,3.4,0.6C91.4,35.2,93,34.8,94.3,34z M85.8,25.7c0-0.6,0.2-1.1,0.4-1.6
	c0.2-0.5,0.5-0.9,0.9-1.2c1.6-1.4,4-1.4,5.5,0c0.8,0.7,1.2,1.8,1.3,2.8L85.8,25.7L85.8,25.7z M112.5,34.6c0.8-0.4,1.6-1,2.2-1.7
	c0.6-0.8,1.1-1.7,1.4-2.6c0.3-1,0.5-2.1,0.5-3.2S116.4,25,116,24c-0.3-0.9-0.9-1.8-1.5-2.6c-0.6-0.7-1.4-1.3-2.3-1.7
	c-0.9-0.4-1.9-0.7-2.9-0.6c-1.1,0-2.2,0.3-3.2,0.8c-0.9,0.5-1.7,1.3-2.2,2.2v-2.7h-3.5v22.2h4v-9.2c0.5,0.9,1.2,1.7,2.1,2.2
	c1,0.6,2.1,0.9,3.2,0.8C110.7,35.2,111.6,35,112.5,34.6z M106,30.9c-0.7-0.6-1.3-1.4-1.6-2.2V25c0.1-0.4,0.3-0.7,0.6-1.1
	c0.3-0.3,0.6-0.6,0.9-0.8c0.3-0.2,0.7-0.4,1.1-0.6c0.4-0.1,0.8-0.2,1.2-0.2c0.6,0,1.2,0.1,1.7,0.4c0.5,0.2,1,0.6,1.4,1
	s0.7,0.9,0.9,1.5c0.2,0.6,0.3,1.2,0.3,1.9c0,0.6-0.1,1.2-0.3,1.8c-0.2,0.6-0.5,1.1-0.8,1.5c-0.4,0.4-0.8,0.8-1.3,1.1
	c-0.5,0.3-1.1,0.4-1.7,0.4C107.5,31.7,106.7,31.4,106,30.9z M125.2,32.8c-0.9-0.5-1.7-1.2-2.2-2.1c-0.6-0.9-1-1.9-1.2-3
	s-0.3-2.3-0.3-3.5V13.5H120v10.7c0,1.3,0.1,2.7,0.4,4c0.3,1.2,0.8,2.4,1.5,3.4c0.7,1,1.6,1.9,2.7,2.4c2.6,1.2,5.7,1.2,8.3,0
	c1.1-0.6,2-1.4,2.7-2.4c0.7-1,1.2-2.2,1.5-3.4c0.3-1.3,0.5-2.7,0.5-4.1V13.5H136v10.7c0,1.1-0.1,2.3-0.3,3.4s-0.6,2.1-1.2,3
	c-0.6,0.9-1.3,1.6-2.2,2.1C130,33.9,127.4,33.9,125.2,32.8z M152.7,34.5c0.9-0.4,1.6-1,2.2-1.8c0.6-0.8,1.1-1.6,1.4-2.6
	c0.3-1,0.5-2,0.5-3.1c0-1-0.2-2-0.5-3c-0.4-1-0.9-1.8-1.5-2.6c-0.7-0.8-1.5-1.4-2.4-1.8c-0.9-0.5-1.9-0.7-3-0.7
	c-1.2,0-2.3,0.3-3.3,0.9s-1.9,1.4-2.5,2.5v-3.1h-1.4v22.1h1.5v-9.8c0.6,1,1.5,1.9,2.5,2.6c1,0.7,2.3,1.1,3.6,1.1
	C150.8,35.2,151.8,35,152.7,34.5L152.7,34.5z M147.7,33.5c-0.6-0.2-1.1-0.5-1.6-0.9s-0.9-0.8-1.3-1.3c-0.4-0.5-0.7-1-1-1.6v-5.1
	c0.1-0.6,0.3-1.1,0.7-1.6s0.8-1,1.4-1.3c0.5-0.4,1.1-0.7,1.7-0.9c0.5-0.2,1.1-0.3,1.7-0.3c0.8,0,1.7,0.2,2.4,0.6s1.4,0.9,2,1.5
	s1,1.4,1.3,2.2c0.3,0.8,0.5,1.7,0.5,2.6c0,0.8-0.1,1.7-0.4,2.5c-0.3,0.8-0.7,1.5-1.2,2.2c-0.5,0.6-1.2,1.1-1.9,1.5
	c-0.8,0.4-1.6,0.6-2.4,0.6C148.9,33.8,148.3,33.7,147.7,33.5L147.7,33.5z"/>
<g id="Icon">
	<linearGradient id="Icon-2_1_" gradientUnits="userSpaceOnUse" x1="36.5764" y1="40.6014" x2="13.0557" y2="-0.1377">
		<stop  offset="0" style="stop-color:#2185C7"/>
		<stop  offset="1" style="stop-color:#87C9F5"/>
	</linearGradient>
	<path id="Icon-2" class="st1" d="M34.5,38.5C31.1,42.8,26.8,46.4,22,49c-4.8-2.6-9.1-6.2-12.5-10.5C3,30.4-0.1,20,0,7.4
		C3.6,6.8,7.1,6,10.5,4.8c3.9-1.3,7.7-3,11.4-4.8c3.7,1.9,7.5,3.5,11.4,4.8c3.4,1.2,7,2,10.5,2.6C44,20.1,40.9,30.5,34.5,38.5z"/>
	<path id="Dot" class="st2" d="M22,10c6.1,0,11,4.9,11,11s-4.9,11-11,11s-11-4.9-11-11l0,0C11,14.9,15.9,10,22,10z"/>
	<linearGradient id="Dot-2_1_" gradientUnits="userSpaceOnUse" x1="24.7505" y1="25.764" x2="19.2495" y2="16.2361">
		<stop  offset="0" style="stop-color:#2185C7"/>
		<stop  offset="1" style="stop-color:#87C9F5"/>
	</linearGradient>
	<circle id="Dot-2" class="st3" cx="22" cy="21" r="5.5"/>
</g>
</svg>
